<?xml version="1.0" encoding="UTF-8"?>
<svg version="1.1" xmlns="http://www.w3.org/2000/svg" width="750" height="750">
<path d="M0 0 C1.01530289 -0.01102249 2.03060577 -0.02204498 3.07667542 -0.03340149 C6.34814114 -0.06013896 9.61905495 -0.06652593 12.890625 -0.06640625 C14.56286636 -0.06900452 14.56286636 -0.06900452 16.26889038 -0.07165527 C38.07870501 -0.0567596 58.39076587 1.78165046 79.27294922 8.47070312 C82.86586753 9.59880484 86.4759429 10.50881561 90.140625 11.37109375 C90.140625 12.03109375 90.140625 12.69109375 90.140625 13.37109375 C91.13578125 13.47421875 92.1309375 13.57734375 93.15625 13.68359375 C97.35621089 14.28419239 101.00395065 15.71984132 104.890625 17.37109375 C109.96843167 19.4938326 109.96843167 19.4938326 115.140625 21.37109375 C115.140625 22.03109375 115.140625 22.69109375 115.140625 23.37109375 C118.440625 24.36109375 121.740625 25.35109375 125.140625 26.37109375 C125.140625 27.03109375 125.140625 27.69109375 125.140625 28.37109375 C126.2853125 28.68046875 126.2853125 28.68046875 127.453125 28.99609375 C132.63961094 30.93003766 137.33095584 33.64960835 142.140625 36.37109375 C142.140625 37.03109375 142.140625 37.69109375 142.140625 38.37109375 C143.2234375 38.74234375 143.2234375 38.74234375 144.328125 39.12109375 C147.39975613 40.48626314 149.5511002 42.24635545 152.140625 44.37109375 C153.254375 44.92796875 153.254375 44.92796875 154.390625 45.49609375 C156.140625 46.37109375 156.140625 46.37109375 157.140625 48.37109375 C158.378125 49.11359375 158.378125 49.11359375 159.640625 49.87109375 C162.140625 51.37109375 162.140625 51.37109375 163.140625 53.37109375 C163.98625 53.86609375 164.831875 54.36109375 165.703125 54.87109375 C166.9096875 55.61359375 166.9096875 55.61359375 168.140625 56.37109375 C168.140625 57.03109375 168.140625 57.69109375 168.140625 58.37109375 C168.78 58.63921875 169.419375 58.90734375 170.078125 59.18359375 C172.140625 60.37109375 172.140625 60.37109375 173.140625 63.37109375 C174.45465776 64.07503987 175.7926507 64.73455033 177.140625 65.37109375 C181.0831562 68.14152108 184.05871727 71.43191073 187.16015625 75.07421875 C190.15881039 78.55194781 193.29595297 81.90254929 196.41796875 85.26953125 C198.140625 87.37109375 198.140625 87.37109375 198.140625 89.37109375 C198.800625 89.37109375 199.460625 89.37109375 200.140625 89.37109375 C203.140625 93.75570913 203.140625 93.75570913 203.140625 96.37109375 C204.130625 96.70109375 205.120625 97.03109375 206.140625 97.37109375 C207.640625 99.26171875 207.640625 99.26171875 209.140625 101.62109375 C209.66527344 102.4409375 210.18992187 103.26078125 210.73046875 104.10546875 C211.19582031 104.853125 211.66117188 105.60078125 212.140625 106.37109375 C212.9140625 107.60859375 212.9140625 107.60859375 213.703125 108.87109375 C223.140625 125.28413723 223.140625 125.28413723 223.140625 129.37109375 C223.800625 129.37109375 224.460625 129.37109375 225.140625 129.37109375 C226.35272542 132.2622513 227.56033918 135.15514844 228.76171875 138.05078125 C229.62167856 140.12150601 230.4878084 142.18969231 231.36328125 144.25390625 C231.72292969 145.11757813 232.08257813 145.98125 232.453125 146.87109375 C232.77925781 147.64453125 233.10539062 148.41796875 233.44140625 149.21484375 C234.140625 151.37109375 234.140625 151.37109375 234.140625 155.37109375 C234.800625 155.37109375 235.460625 155.37109375 236.140625 155.37109375 C236.64699107 157.11926233 237.14547119 158.86971638 237.640625 160.62109375 C237.9190625 161.595625 238.1975 162.57015625 238.484375 163.57421875 C239.140625 166.37109375 239.140625 166.37109375 239.140625 170.37109375 C239.800625 170.37109375 240.460625 170.37109375 241.140625 170.37109375 C241.64929169 172.72367719 242.1476875 175.07770779 242.640625 177.43359375 C242.78371094 178.09037109 242.92679688 178.74714844 243.07421875 179.42382812 C243.98014955 183.80249363 244.28093646 187.87528079 244.140625 192.37109375 C244.800625 192.37109375 245.460625 192.37109375 246.140625 192.37109375 C247.97391889 205.51631203 248.4541714 218.46519651 248.40136719 231.73022461 C248.39062709 234.93297191 248.40133869 238.13515998 248.4140625 241.33789062 C248.42176943 253.09628967 248.20635765 264.76524048 246.140625 276.37109375 C245.810625 276.70109375 245.480625 277.03109375 245.140625 277.37109375 C244.77380107 278.99879344 244.4590045 280.63830622 244.16796875 282.28125 C243.99072266 283.27060547 243.81347656 284.25996094 243.63085938 285.27929688 C243.44845703 286.32021484 243.26605469 287.36113281 243.078125 288.43359375 C242.89185547 289.47837891 242.70558594 290.52316406 242.51367188 291.59960938 C242.05245871 294.18949868 241.59494466 296.7799878 241.140625 299.37109375 C240.480625 299.37109375 239.820625 299.37109375 239.140625 299.37109375 C239.016875 300.36109375 238.893125 301.35109375 238.765625 302.37109375 C238.18867773 306.45989399 237.19098846 310.37971262 236.140625 314.37109375 C235.480625 314.37109375 234.820625 314.37109375 234.140625 314.37109375 C234.05941406 315.32113281 233.97820312 316.27117187 233.89453125 317.25 C233.17670542 322.27478079 231.11004348 326.69378753 229.078125 331.30859375 C228.70107422 332.18322266 228.32402344 333.05785156 227.93554688 333.95898438 C227.01139532 336.09974051 226.0796499 338.23683022 225.140625 340.37109375 C224.480625 340.37109375 223.820625 340.37109375 223.140625 340.37109375 C222.99173828 341.43070312 222.99173828 341.43070312 222.83984375 342.51171875 C220.90667157 350.41720498 215.04239787 357.72339826 210.48828125 364.390625 C209.62074399 365.66552759 208.7725748 366.95394045 207.94921875 368.2578125 C207.06254432 369.66144103 206.10888257 371.02244928 205.140625 372.37109375 C204.480625 372.37109375 203.820625 372.37109375 203.140625 372.37109375 C203.0281543 372.95898682 202.91568359 373.54687988 202.79980469 374.15258789 C202.08057909 376.57318159 201.17440432 377.91324717 199.59375 379.8671875 C199.078125 380.50849609 198.5625 381.14980469 198.03125 381.81054688 C197.48984375 382.46990234 196.9484375 383.12925781 196.390625 383.80859375 C195.8646875 384.46408203 195.33875 385.11957031 194.796875 385.79492188 C191.76178554 389.53995181 188.58623071 392.99209905 185.140625 396.37109375 C184.5425 397.17546875 183.944375 397.97984375 183.328125 398.80859375 C181.36962987 401.1028309 179.68954014 402.51209753 177.265625 404.24609375 C173.76004749 406.76308539 171.21684692 409.49185404 168.51953125 412.8359375 C166.68094366 414.88286363 164.52962029 416.04387414 162.140625 417.37109375 C161.480625 418.36109375 160.820625 419.35109375 160.140625 420.37109375 C158.48991104 421.39721324 156.82092494 422.39417518 155.140625 423.37109375 C154.274375 424.09296875 153.408125 424.81484375 152.515625 425.55859375 C150.140625 427.37109375 150.140625 427.37109375 147.140625 427.37109375 C146.810625 428.36109375 146.480625 429.35109375 146.140625 430.37109375 C143.90917811 431.81978178 141.72548716 433.11386028 139.390625 434.37109375 C138.14560471 435.05817964 136.90080913 435.74567288 135.65625 436.43359375 C135.05232422 436.76359375 134.44839844 437.09359375 133.82617188 437.43359375 C132.38637398 438.23440834 130.97145549 439.07968133 129.5625 439.93359375 C126.81671549 441.56334972 124.00998874 442.97027394 121.140625 444.37109375 C119.38298828 445.23927734 119.38298828 445.23927734 117.58984375 446.125 C110.83611144 449.39476986 104.61985549 452.19016262 97.140625 453.37109375 C97.140625 454.03109375 97.140625 454.69109375 97.140625 455.37109375 C95.39245642 455.87745982 93.64200237 456.37593994 91.890625 456.87109375 C90.91609375 457.14953125 89.9415625 457.42796875 88.9375 457.71484375 C86.140625 458.37109375 86.140625 458.37109375 82.140625 458.37109375 C82.140625 459.03109375 82.140625 459.69109375 82.140625 460.37109375 C80.85027344 460.63664062 79.55992187 460.9021875 78.23046875 461.17578125 C76.5129925 461.53241566 74.79554616 461.88919414 73.078125 462.24609375 C71.80678711 462.50712891 71.80678711 462.50712891 70.50976562 462.7734375 C69.67509766 462.94746094 68.84042969 463.12148438 67.98046875 463.30078125 C67.22113037 463.45788574 66.46179199 463.61499023 65.67944336 463.77685547 C63.70265038 464.23954555 61.74581075 464.78777424 59.80053711 465.36889648 C46.21657237 469.08860666 31.72816188 468.7152153 17.75927734 468.68676758 C14.54099241 468.68361857 11.32364025 468.70712256 8.10546875 468.73242188 C-6.09707788 468.7734885 -19.8333106 467.59102927 -33.859375 465.37109375 C-33.859375 464.71109375 -33.859375 464.05109375 -33.859375 463.37109375 C-35.1896875 463.46390625 -35.1896875 463.46390625 -36.546875 463.55859375 C-42.4520101 463.59519583 -48.17385968 461.80743446 -53.859375 460.37109375 C-53.859375 459.71109375 -53.859375 459.05109375 -53.859375 458.37109375 C-55.035 458.24734375 -56.210625 458.12359375 -57.421875 457.99609375 C-61.40057926 457.5067344 -65.03704059 456.56557325 -68.859375 455.37109375 C-68.859375 454.71109375 -68.859375 454.05109375 -68.859375 453.37109375 C-70.035 453.18546875 -71.210625 452.99984375 -72.421875 452.80859375 C-86.58887317 449.66285085 -100.4727952 440.71813562 -112.44921875 432.88671875 C-114.54335326 431.56982379 -116.62573536 430.42831529 -118.859375 429.37109375 C-118.859375 428.71109375 -118.859375 428.05109375 -118.859375 427.37109375 C-119.95572266 426.96503906 -119.95572266 426.96503906 -121.07421875 426.55078125 C-127.09833468 423.99919217 -132.39581901 420.13222014 -136.859375 415.37109375 C-137.99690672 414.38229499 -139.14366815 413.40406547 -140.296875 412.43359375 C-143.30724726 409.88536819 -146.07005515 407.1604136 -148.859375 404.37109375 C-149.74625 403.71109375 -150.633125 403.05109375 -151.546875 402.37109375 C-154.11206928 400.15254734 -154.68290082 398.48034693 -155.859375 395.37109375 C-156.849375 395.04109375 -157.839375 394.71109375 -158.859375 394.37109375 C-160.68359375 392.59375 -160.68359375 392.59375 -162.546875 390.43359375 C-163.16949219 389.72332031 -163.79210937 389.01304687 -164.43359375 388.28125 C-165.859375 386.37109375 -165.859375 386.37109375 -165.859375 384.37109375 C-166.519375 384.37109375 -167.179375 384.37109375 -167.859375 384.37109375 C-170.15586149 381.80962805 -170.859375 380.89141803 -170.859375 377.37109375 C-171.49875 377.10296875 -172.138125 376.83484375 -172.796875 376.55859375 C-174.859375 375.37109375 -174.859375 375.37109375 -175.859375 372.37109375 C-176.849375 371.71109375 -177.839375 371.05109375 -178.859375 370.37109375 C-180.046875 367.24609375 -180.046875 367.24609375 -180.859375 364.37109375 C-181.519375 364.37109375 -182.179375 364.37109375 -182.859375 364.37109375 C-185.859375 358.62109375 -185.859375 358.62109375 -185.859375 356.37109375 C-186.519375 356.37109375 -187.179375 356.37109375 -187.859375 356.37109375 C-188.37886719 355.33210938 -188.89835937 354.293125 -189.43359375 353.22265625 C-189.93729492 352.2157373 -189.93729492 352.2157373 -190.45117188 351.18847656 C-191.18398382 349.72219955 -191.91574838 348.25539863 -192.64648438 346.78808594 C-194.24237044 343.58639268 -195.84758071 340.39367379 -197.50390625 337.22265625 C-197.95121094 336.36414063 -198.39851563 335.505625 -198.859375 334.62109375 C-199.25125 333.88375 -199.643125 333.14640625 -200.046875 332.38671875 C-200.859375 330.37109375 -200.859375 330.37109375 -200.859375 326.37109375 C-201.519375 326.37109375 -202.179375 326.37109375 -202.859375 326.37109375 C-203.36771091 325.12446044 -203.86568645 323.87359988 -204.359375 322.62109375 C-204.6378125 321.925 -204.91625 321.22890625 -205.203125 320.51171875 C-205.859375 318.37109375 -205.859375 318.37109375 -205.859375 314.37109375 C-206.519375 314.37109375 -207.179375 314.37109375 -207.859375 314.37109375 C-211.20233399 304.01679599 -213.81578741 293.569914 -216.109375 282.93359375 C-216.36734863 281.74991211 -216.62532227 280.56623047 -216.89111328 279.34667969 C-217.1332959 278.20102539 -217.37547852 277.05537109 -217.625 275.875 C-217.83930664 274.86252197 -218.05361328 273.85004395 -218.27441406 272.80688477 C-219.66921832 264.61444727 -220.01785428 256.50151865 -220.02734375 248.203125 C-220.03067215 247.16524338 -220.03400055 246.12736176 -220.03742981 245.05802917 C-220.04246264 242.87389566 -220.04483927 240.68975454 -220.04467773 238.50561523 C-220.04685754 235.20999095 -220.06503445 231.91470561 -220.08398438 228.61914062 C-220.11511219 217.35502361 -219.88220176 206.48200701 -217.859375 195.37109375 C-217.56994019 193.76439819 -217.56994019 193.76439819 -217.2746582 192.12524414 C-216.69483787 189.07297348 -216.0684622 186.0348534 -215.421875 182.99609375 C-215.21755859 181.99449219 -215.01324219 180.99289062 -214.80273438 179.9609375 C-213.68257992 174.62188356 -212.36026241 169.47294118 -210.54150391 164.32788086 C-209.51313323 161.37784831 -208.69203849 158.38149251 -207.859375 155.37109375 C-207.199375 155.37109375 -206.539375 155.37109375 -205.859375 155.37109375 C-205.735625 154.33984375 -205.611875 153.30859375 -205.484375 152.24609375 C-204.92047686 148.74992529 -204.07255441 145.68711748 -202.859375 142.37109375 C-202.199375 142.37109375 -201.539375 142.37109375 -200.859375 142.37109375 C-200.735625 141.48421875 -200.611875 140.59734375 -200.484375 139.68359375 C-199.91524764 136.66721873 -199.09323064 134.16783321 -197.859375 131.37109375 C-197.199375 131.37109375 -196.539375 131.37109375 -195.859375 131.37109375 C-194.869375 128.07109375 -193.879375 124.77109375 -192.859375 121.37109375 C-192.199375 121.37109375 -191.539375 121.37109375 -190.859375 121.37109375 C-190.55 120.19546875 -190.55 120.19546875 -190.234375 118.99609375 C-188.3862411 114.12374073 -185.9289994 109.5918273 -182.859375 105.37109375 C-182.199375 105.37109375 -181.539375 105.37109375 -180.859375 105.37109375 C-180.76527344 104.819375 -180.67117187 104.26765625 -180.57421875 103.69921875 C-179.6677606 100.7470381 -178.19593982 98.64388031 -176.421875 96.12109375 C-175.80441406 95.2290625 -175.18695313 94.33703125 -174.55078125 93.41796875 C-173.99261719 92.7425 -173.43445313 92.06703125 -172.859375 91.37109375 C-172.199375 91.37109375 -171.539375 91.37109375 -170.859375 91.37109375 C-170.59125 90.56671875 -170.323125 89.76234375 -170.046875 88.93359375 C-169.655 88.08796875 -169.263125 87.24234375 -168.859375 86.37109375 C-167.869375 86.04109375 -166.879375 85.71109375 -165.859375 85.37109375 C-165.529375 84.54609375 -165.199375 83.72109375 -164.859375 82.87109375 C-164.529375 82.04609375 -164.199375 81.22109375 -163.859375 80.37109375 C-162.869375 80.04109375 -161.879375 79.71109375 -160.859375 79.37109375 C-160.529375 78.71109375 -160.199375 78.05109375 -159.859375 77.37109375 C-158.859375 75.37109375 -158.859375 75.37109375 -155.859375 74.37109375 C-155.529375 73.54609375 -155.199375 72.72109375 -154.859375 71.87109375 C-154.529375 71.04609375 -154.199375 70.22109375 -153.859375 69.37109375 C-152.869375 69.04109375 -151.879375 68.71109375 -150.859375 68.37109375 C-150.859375 67.71109375 -150.859375 67.05109375 -150.859375 66.37109375 C-149.8384375 65.81421875 -149.8384375 65.81421875 -148.796875 65.24609375 C-145.31888181 63.02609809 -143.17781534 60.40112253 -140.60546875 57.2109375 C-138.78514719 55.29288055 -137.24050328 54.4591913 -134.859375 53.37109375 C-133.50436581 52.05979453 -132.17266157 50.72417688 -130.859375 49.37109375 C-125.1793436 44.63773425 -119.29798089 40.02543763 -112.859375 36.37109375 C-111.993125 35.81421875 -111.126875 35.25734375 -110.234375 34.68359375 C-107.859375 33.37109375 -107.859375 33.37109375 -104.859375 33.37109375 C-104.859375 32.71109375 -104.859375 32.05109375 -104.859375 31.37109375 C-99.109375 28.37109375 -99.109375 28.37109375 -96.859375 28.37109375 C-96.859375 27.71109375 -96.859375 27.05109375 -96.859375 26.37109375 C-93.559375 25.38109375 -90.259375 24.39109375 -86.859375 23.37109375 C-86.859375 22.71109375 -86.859375 22.05109375 -86.859375 21.37109375 C-85.42383475 20.86549467 -83.9858548 20.36681885 -82.546875 19.87109375 C-81.74636719 19.59265625 -80.94585937 19.31421875 -80.12109375 19.02734375 C-77.859375 18.37109375 -77.859375 18.37109375 -74.859375 18.37109375 C-74.859375 17.71109375 -74.859375 17.05109375 -74.859375 16.37109375 C-73.25681392 15.86597131 -71.65225708 15.36717748 -70.046875 14.87109375 C-69.15355469 14.59265625 -68.26023437 14.31421875 -67.33984375 14.02734375 C-64.859375 13.37109375 -64.859375 13.37109375 -61.859375 13.37109375 C-61.859375 12.71109375 -61.859375 12.05109375 -61.859375 11.37109375 C-60.23128906 10.97277344 -60.23128906 10.97277344 -58.5703125 10.56640625 C-57.12496853 10.20976293 -55.67965778 9.85298495 -54.234375 9.49609375 C-53.52152344 9.32207031 -52.80867187 9.14804688 -52.07421875 8.96875 C-48.96103864 8.19759529 -45.94171342 7.40014152 -42.9140625 6.33203125 C-38.86325313 5.05773572 -34.80487125 4.47807333 -30.609375 3.87109375 C-25.77807542 3.15853579 -20.99737429 2.41357248 -16.23046875 1.34545898 C-10.79582891 0.25282881 -5.53146033 0.03261984 0 0 Z " fill="#F86066" transform="translate(368.859375,154.62890625)"/>
<path d="M0 0 C0.85232712 -0.00686325 1.70465424 -0.0137265 2.58280945 -0.02079773 C5.40441478 -0.03912108 8.225467 -0.03522031 11.04711914 -0.02954102 C13.00623252 -0.03410028 14.9653443 -0.03940508 16.92445374 -0.04542542 C21.03270968 -0.05436748 25.14077135 -0.05192107 29.24902344 -0.04199219 C34.5163887 -0.03050316 39.78308352 -0.05070749 45.05036068 -0.07990932 C49.09697233 -0.09824722 53.14342262 -0.09798364 57.19006538 -0.0922718 C59.1321564 -0.09211828 61.07425814 -0.09818797 63.01630974 -0.11056328 C65.73135411 -0.12542544 68.44515117 -0.11483162 71.16015625 -0.09765625 C72.36581238 -0.1121582 72.36581238 -0.1121582 73.5958252 -0.12695312 C76.84390398 -0.08388183 79.26342239 0.19926287 82.14271545 1.74546814 C84.60764846 6.10829865 84.19982106 10.51948845 84.16235352 15.44311523 C84.16936279 16.56868835 84.17637207 17.69426147 84.18359375 18.85394287 C84.20121699 22.57922952 84.18953484 26.30375819 84.17602539 30.02905273 C84.17871904 32.61450344 84.18260039 35.19995316 84.18762207 37.78540039 C84.19352303 43.20591806 84.18531552 48.62615019 84.16625977 54.04663086 C84.14449102 60.31112711 84.15154253 66.57510262 84.17356539 72.83958626 C84.19391201 78.868859 84.19174909 84.8978772 84.18003845 90.92718506 C84.17736664 93.49167961 84.18065681 96.05618742 84.18995667 98.6206665 C84.20009461 102.20246789 84.18465799 105.78326389 84.16235352 109.36499023 C84.17045044 110.42901062 84.17854736 111.49303101 84.18688965 112.58929443 C84.10599135 119.58771936 84.10599135 119.58771936 82.14271545 123.06263733 C78.53517092 124.99991992 75.15348498 124.95379454 71.16015625 124.90576172 C70.30607681 124.9111647 69.45199738 124.91656769 68.57203674 124.9221344 C65.75087765 124.93463491 62.93073635 124.91812345 60.10961914 124.90014648 C58.14954067 124.90030143 56.1894619 124.90178963 54.22938538 124.90455627 C50.12283779 124.90594081 46.01663924 124.89337185 41.91015625 124.87060547 C36.64167427 124.84220203 31.37377151 124.84496254 26.10524654 124.85769558 C22.05867041 124.86464379 18.01222862 124.85687361 13.96566963 124.84443855 C12.0227669 124.83991702 10.07984978 124.83959336 8.13694572 124.84350395 C5.42432862 124.84640824 2.7125156 124.82994764 0 124.80810547 C-1.20869247 124.81485794 -1.20869247 124.81485794 -2.44180298 124.82174683 C-7.87418744 124.74891713 -7.87418744 124.74891713 -10.06108189 123.18109226 C-11.75497353 120.85514138 -11.73242251 119.44895501 -11.73617554 116.58374023 C-11.74463501 115.59108154 -11.75309448 114.59842285 -11.7618103 113.57568359 C-11.75573761 112.48779541 -11.74966492 111.39990723 -11.7434082 110.27905273 C-11.74866516 109.13251221 -11.75392212 107.98597168 -11.75933838 106.8046875 C-11.77257194 103.00433846 -11.76378807 99.20440624 -11.75366211 95.40405273 C-11.75568187 92.76993733 -11.75859249 90.13582247 -11.76235962 87.50170898 C-11.76781868 81.97692322 -11.76062172 76.45225774 -11.74633789 70.92749023 C-11.73001096 64.53867453 -11.73529937 58.15014602 -11.75181711 51.76133728 C-11.76706666 45.6173013 -11.76545871 39.47339273 -11.75667191 33.3293457 C-11.75466637 30.7137854 -11.75714148 28.0982178 -11.76411057 25.48266602 C-11.77170382 21.83126223 -11.76014992 18.18041493 -11.7434082 14.52905273 C-11.7494809 13.44116455 -11.75555359 12.35327637 -11.7618103 11.23242188 C-11.75335083 10.23976318 -11.74489136 9.24710449 -11.73617554 8.22436523 C-11.73504446 7.36085449 -11.73391338 6.49734375 -11.73274803 5.60766602 C-10.64813596 -0.72324066 -5.2801003 -0.02949777 0 0 Z " fill="#FB646A" transform="translate(509.355224609375,311.595947265625)"/>
<path d="M0 0 C1.27779831 -0.00307663 2.55559662 -0.00615326 3.87211609 -0.00932312 C5.26215801 -0.00242695 6.65219814 0.0048399 8.04223633 0.01245117 C9.46901915 0.01364359 10.89580276 0.014096 12.32258606 0.01383972 C15.30755552 0.01540176 18.29240457 0.0236724 21.27734375 0.03710938 C25.11099307 0.0541451 28.94451073 0.05792226 32.77819347 0.05716419 C35.72147385 0.05743547 38.66472523 0.06290912 41.60799599 0.07016563 C43.02224826 0.07335545 44.43650383 0.07532044 45.85075951 0.07605934 C47.82109122 0.07821696 49.79141078 0.08774546 51.76171875 0.09765625 C52.88438644 0.10146805 54.00705414 0.10527985 55.16374207 0.10920715 C57.68676758 0.24291992 57.68676758 0.24291992 58.68676758 1.24291992 C58.9262403 6.93984987 58.34908603 12.15388769 57.31176758 17.74291992 C55.99573046 25.17068315 54.97163325 32.58870232 54.11645508 40.08276367 C53.68676758 43.24291992 53.68676758 43.24291992 52.68676758 46.24291992 C41.13676758 46.24291992 29.58676758 46.24291992 17.68676758 46.24291992 C17.69836914 49.04663086 17.7099707 51.8503418 17.72192383 54.73901367 C17.72971391 57.44286994 17.73579095 60.14672498 17.74169922 62.85058594 C17.74674002 64.73535722 17.75357256 66.62012457 17.76220703 68.50488281 C17.77428375 71.20793628 17.77999826 73.91093823 17.78442383 76.61401367 C17.78958511 77.46192978 17.7947464 78.30984589 17.80006409 79.18345642 C17.80025953 81.20363061 17.74882968 83.22369926 17.68676758 85.24291992 C16.68676758 86.24291992 16.68676758 86.24291992 13.63574219 86.35644531 C12.28685487 86.35628627 10.93796144 86.35059604 9.58911133 86.34057617 C8.52582359 86.33845375 8.52582359 86.33845375 7.4410553 86.33628845 C5.16875045 86.33067435 2.89654282 86.31811955 0.62426758 86.30541992 C-0.91284038 86.30040673 -2.44994987 86.29584351 -3.98706055 86.29174805 C-7.76248884 86.28070035 -11.53784413 86.26342633 -15.31323242 86.24291992 C-15.42926234 76.32438799 -15.51801665 66.40601845 -15.57229328 56.48694515 C-15.59834819 51.88070073 -15.63367057 47.27492184 -15.69042969 42.66894531 C-15.74489689 38.22094228 -15.77468384 33.77338603 -15.78761864 29.32507515 C-15.79683223 27.63101738 -15.81482462 25.9369831 -15.84188271 24.24311638 C-15.87837067 21.8635327 -15.88316985 19.48577702 -15.88085938 17.10595703 C-15.89883575 16.4111171 -15.91681213 15.71627716 -15.93533325 15.00038147 C-15.87761742 9.47919645 -13.99592567 6.1456792 -10.31323242 2.24291992 C-7.05074245 -0.17651853 -3.98874185 -0.00505223 0 0 Z " fill="#FEFDFD" transform="translate(198.313232421875,283.757080078125)"/>
<path d="M0 0 C10.89 0 21.78 0 33 0 C33 13.53 33 27.06 33 41 C46.11903899 40.96039538 46.11903899 40.96039538 59.23803711 40.90991211 C60.87613866 40.90699299 62.51424094 40.90444442 64.15234375 40.90234375 C65.44017761 40.8946698 65.44017761 40.8946698 66.75402832 40.88684082 C68.83636052 40.8865309 70.9186036 40.93757824 73 41 C73.33 41.33 73.66 41.66 74 42 C73.94719303 51.16200933 72.62978903 60.19808632 71.10449219 69.21240234 C70.31364237 73.8864249 69.69471496 78.53242021 69.26367188 83.25439453 C69 85 69 85 68 86 C66.21641518 86.10945536 64.42850118 86.14908917 62.64160156 86.16113281 C61.49661194 86.17074036 60.35162231 86.1803479 59.17193604 86.19024658 C57.92410339 86.19449646 56.67627075 86.19874634 55.390625 86.203125 C54.11652771 86.20882507 52.84243042 86.21452515 51.52972412 86.22039795 C48.82609481 86.22986725 46.12257702 86.23675371 43.41894531 86.24023438 C39.96099932 86.24570645 36.50344963 86.26970147 33.04562759 86.29820633 C29.74399012 86.32136472 26.44233232 86.32328539 23.140625 86.328125 C21.90088928 86.3404718 20.66115356 86.3528186 19.3838501 86.36553955 C17.6474527 86.3610379 17.6474527 86.3610379 15.87597656 86.35644531 C14.85973206 86.36009094 13.84348755 86.36373657 12.79644775 86.36749268 C8.29390032 85.77579444 5.7404192 83.822688 2.75 80.5 C-0.17768116 76.31759834 -0.13909755 72.68612372 -0.11352539 67.7746582 C-0.11367142 67.04270233 -0.11381744 66.31074646 -0.1139679 65.55661011 C-0.1132714 63.13797031 -0.10549128 60.71940759 -0.09765625 58.30078125 C-0.09579114 56.62355084 -0.09436767 54.94631989 -0.09336853 53.26908875 C-0.0895507 48.85499568 -0.07972666 44.44093553 -0.06866455 40.02685547 C-0.056636 34.7304833 -0.05204469 29.43410012 -0.04621124 24.1377182 C-0.03651453 16.09178924 -0.01735284 8.0459325 0 0 Z " fill="#FEFDFD" transform="translate(183,383)"/>
<path d="M0 0 C6.60166847 -0.15225192 13.20288369 -0.257257 19.8059082 -0.32958984 C22.05152301 -0.35974538 24.29702021 -0.40067698 26.54223633 -0.45263672 C29.77194229 -0.52550334 33.00009025 -0.55946915 36.23046875 -0.5859375 C37.23272995 -0.61690521 38.23499115 -0.64787292 39.2676239 -0.67977905 C43.97075364 -0.68204505 46.27881124 -0.53159097 50.14257812 2.31640625 C53.15726711 6.90115164 52.61653857 12.24173859 52.48828125 17.5234375 C52.48120651 18.62475006 52.47413177 19.72606262 52.46684265 20.86074829 C52.43893226 24.36619995 52.37619606 27.87003395 52.3125 31.375 C52.28741297 33.75648729 52.26460052 36.13799971 52.24414062 38.51953125 C52.19337458 44.34747342 52.09550728 50.17193373 52 56 C35.83 56 19.66 56 3 56 C2.95101563 52.37644531 2.90203125 48.75289063 2.8515625 45.01953125 C2.79754454 41.50801482 2.74024016 37.99656633 2.68261719 34.48510742 C2.64434698 32.04570583 2.6094907 29.60624818 2.578125 27.16674805 C2.53243255 23.65913873 2.47444395 20.15191466 2.4140625 16.64453125 C2.39673569 15.00989677 2.39673569 15.00989677 2.37905884 13.34223938 C2.3492543 11.81121834 2.3492543 11.81121834 2.31884766 10.24926758 C2.30552399 9.35436111 2.29220032 8.45945465 2.2784729 7.53742981 C1.97138559 4.73926708 1.15344103 2.55612087 0 0 Z " fill="#FCE06C" transform="translate(346,315)"/>
<path d="M0 0 C3.31248187 -0.02888146 6.62493167 -0.04675799 9.9375 -0.0625 C10.88302734 -0.07087891 11.82855469 -0.07925781 12.80273438 -0.08789062 C14.15141602 -0.09272461 14.15141602 -0.09272461 15.52734375 -0.09765625 C16.77632446 -0.10551147 16.77632446 -0.10551147 18.05053711 -0.11352539 C20 0 20 0 21 1 C21.08758003 2.99964982 21.10696576 5.0023611 21.09765625 7.00390625 C21.09443359 8.21884766 21.09121094 9.43378906 21.08789062 10.68554688 C21.07951172 11.96494141 21.07113281 13.24433594 21.0625 14.5625 C21.05798828 15.84576172 21.05347656 17.12902344 21.04882812 18.45117188 C21.03699545 21.63416022 21.02051068 24.81705762 21 28 C22.98 28 24.96 28 27 28 C27 18.76 27 9.52 27 0 C33.93 0 40.86 0 48 0 C48 18.48 48 36.96 48 56 C40.801875 56.061875 33.60375 56.12375 26.1875 56.1875 C22.78280396 56.22846802 22.78280396 56.22846802 19.30932617 56.27026367 C17.51221245 56.27902469 15.71509279 56.28666954 13.91796875 56.29296875 C12.51593201 56.3159906 12.51593201 56.3159906 11.08557129 56.33947754 C9.74613464 56.34002136 9.74613464 56.34002136 8.37963867 56.34057617 C7.60464523 56.34723801 6.82965179 56.35389984 6.03117371 56.36076355 C3.43822642 55.90022152 2.59473686 55.06178569 1 53 C0.01533747 50.04601242 -0.12127836 48.14750978 -0.11352539 45.06958008 C-0.11344986 44.06876907 -0.11337433 43.06795807 -0.11329651 42.03681946 C-0.10813522 40.95861435 -0.10297394 39.88040924 -0.09765625 38.76953125 C-0.0962413 37.66397385 -0.09482635 36.55841644 -0.09336853 35.4193573 C-0.08776514 31.88371083 -0.07521204 28.34812738 -0.0625 24.8125 C-0.05748544 22.41731862 -0.05292246 20.02213625 -0.04882812 17.62695312 C-0.03779461 11.75128053 -0.02105316 5.87564477 0 0 Z " fill="#FCE16C" transform="translate(267,380)"/>
<path d="M0 0 C1.16582108 0.00666183 1.16582108 0.00666183 2.35519409 0.01345825 C3.23595612 0.01360931 4.11671814 0.01376038 5.02416992 0.01391602 C6.4523555 0.02939987 6.4523555 0.02939987 7.90939331 0.04519653 C9.37008743 0.04944138 9.37008743 0.04944138 10.86029053 0.05377197 C13.9783443 0.0649899 17.09611349 0.09009734 20.21408081 0.11550903 C22.32475375 0.12553675 24.43543119 0.13466296 26.54611206 0.14285278 C31.72719916 0.16493445 36.90811966 0.19842774 42.08908081 0.24050903 C41.93980161 1.80496072 41.78842456 3.36921229 41.63619995 4.93338013 C41.51010094 6.24005142 41.51010094 6.24005142 41.38145447 7.57312012 C40.92915022 11.69959086 40.23723337 15.7770251 39.52658081 19.86550903 C39.05220581 22.62925903 38.57783081 25.39300903 38.08908081 28.24050903 C30.16908081 28.24050903 22.24908081 28.24050903 14.08908081 28.24050903 C14.08908081 37.15050903 14.08908081 46.06050903 14.08908081 55.24050903 C7.48908081 55.24050903 0.88908081 55.24050903 -5.91091919 55.24050903 C-5.95692637 48.81739535 -5.99672394 42.3948576 -6.02078247 35.97171021 C-6.03081611 33.78842222 -6.04444609 31.6051476 -6.0617981 29.42190552 C-6.08616232 26.27677099 -6.0974289 23.13181475 -6.10623169 19.98660278 C-6.11655426 19.01653793 -6.12687683 18.04647308 -6.13751221 17.04701233 C-6.13838683 11.71790415 -5.79768648 7.24801757 -3.91091919 2.24050903 C-1.91091919 0.24050903 -1.91091919 0.24050903 0 0 Z " fill="#FCE36C" transform="translate(272.9109191894531,314.7594909667969)"/>
<path d="M0 0 C9.57 0 19.14 0 29 0 C29.433125 3.856875 29.86625 7.71375 30.3125 11.6875 C31.38741088 21.17475689 32.58318034 30.62948759 34.08520508 40.05932617 C34.20532959 40.8454126 34.3254541 41.63149902 34.44921875 42.44140625 C34.55580811 43.10857666 34.66239746 43.77574707 34.7722168 44.46313477 C35.11619573 48.29409419 35 52.15362877 35 56 C22.46 56 9.92 56 -3 56 C-3 45.96324222 -3 45.96324222 -2.1015625 41.8046875 C-0.81253816 35.2822698 -0.08652024 28.73197367 0.625 22.125 C0.82609375 20.330625 0.82609375 20.330625 1.03125 18.5 C2.44033516 8.98105013 2.44033516 8.98105013 0 0 Z " fill="#FBE16C" transform="translate(440,315)"/>
<path d="M0 0 C0.85232712 -0.00686325 1.70465424 -0.0137265 2.58280945 -0.02079773 C5.40441478 -0.03912108 8.225467 -0.03522031 11.04711914 -0.02954102 C13.00623252 -0.03410028 14.9653443 -0.03940508 16.92445374 -0.04542542 C21.03270968 -0.05436748 25.14077135 -0.05192107 29.24902344 -0.04199219 C34.5163887 -0.03050316 39.78308352 -0.05070749 45.05036068 -0.07990932 C49.09697233 -0.09824722 53.14342262 -0.09798364 57.19006538 -0.0922718 C59.1321564 -0.09211828 61.07425814 -0.09818797 63.01630974 -0.11056328 C65.73135411 -0.12542544 68.44515117 -0.11483162 71.16015625 -0.09765625 C72.36581238 -0.1121582 72.36581238 -0.1121582 73.5958252 -0.12695312 C76.84390398 -0.08388183 79.26342239 0.19926287 82.14271545 1.74546814 C84.60764846 6.10829865 84.19982106 10.51948845 84.16235352 15.44311523 C84.16936279 16.56868835 84.17637207 17.69426147 84.18359375 18.85394287 C84.20121699 22.57922952 84.18953484 26.30375819 84.17602539 30.02905273 C84.17871904 32.61450344 84.18260039 35.19995316 84.18762207 37.78540039 C84.19352303 43.20591806 84.18531552 48.62615019 84.16625977 54.04663086 C84.14449102 60.31112711 84.15154253 66.57510262 84.17356539 72.83958626 C84.19391201 78.868859 84.19174909 84.8978772 84.18003845 90.92718506 C84.17736664 93.49167961 84.18065681 96.05618742 84.18995667 98.6206665 C84.20009461 102.20246789 84.18465799 105.78326389 84.16235352 109.36499023 C84.17045044 110.42901062 84.17854736 111.49303101 84.18688965 112.58929443 C84.10599135 119.58771936 84.10599135 119.58771936 82.14271545 123.06263733 C78.53517092 124.99991992 75.15348498 124.95379454 71.16015625 124.90576172 C70.30607681 124.9111647 69.45199738 124.91656769 68.57203674 124.9221344 C65.75087765 124.93463491 62.93073635 124.91812345 60.10961914 124.90014648 C58.14954067 124.90030143 56.1894619 124.90178963 54.22938538 124.90455627 C50.12283779 124.90594081 46.01663924 124.89337185 41.91015625 124.87060547 C36.64167427 124.84220203 31.37377151 124.84496254 26.10524654 124.85769558 C22.05867041 124.86464379 18.01222862 124.85687361 13.96566963 124.84443855 C12.0227669 124.83991702 10.07984978 124.83959336 8.13694572 124.84350395 C5.42432862 124.84640824 2.7125156 124.82994764 0 124.80810547 C-1.20869247 124.81485794 -1.20869247 124.81485794 -2.44180298 124.82174683 C-7.87418744 124.74891713 -7.87418744 124.74891713 -10.06108189 123.18109226 C-11.75497353 120.85514138 -11.73242251 119.44895501 -11.73617554 116.58374023 C-11.74463501 115.59108154 -11.75309448 114.59842285 -11.7618103 113.57568359 C-11.75573761 112.48779541 -11.74966492 111.39990723 -11.7434082 110.27905273 C-11.74866516 109.13251221 -11.75392212 107.98597168 -11.75933838 106.8046875 C-11.77257194 103.00433846 -11.76378807 99.20440624 -11.75366211 95.40405273 C-11.75568187 92.76993733 -11.75859249 90.13582247 -11.76235962 87.50170898 C-11.76781868 81.97692322 -11.76062172 76.45225774 -11.74633789 70.92749023 C-11.73001096 64.53867453 -11.73529937 58.15014602 -11.75181711 51.76133728 C-11.76706666 45.6173013 -11.76545871 39.47339273 -11.75667191 33.3293457 C-11.75466637 30.7137854 -11.75714148 28.0982178 -11.76411057 25.48266602 C-11.77170382 21.83126223 -11.76014992 18.18041493 -11.7434082 14.52905273 C-11.7494809 13.44116455 -11.75555359 12.35327637 -11.7618103 11.23242188 C-11.75335083 10.23976318 -11.74489136 9.24710449 -11.73617554 8.22436523 C-11.73504446 7.36085449 -11.73391338 6.49734375 -11.73274803 5.60766602 C-10.64813596 -0.72324066 -5.2801003 -0.02949777 0 0 Z M-7.35522461 5.40405273 C-7.45307235 6.88189075 -7.48154226 8.36438541 -7.48220825 9.84545898 C-7.48502808 10.80460205 -7.4878479 11.76374512 -7.49075317 12.75195312 C-7.48872894 13.812771 -7.48670471 14.87358887 -7.48461914 15.96655273 C-7.48637146 17.07699951 -7.48812378 18.18744629 -7.4899292 19.33154297 C-7.49435033 23.0223952 -7.4914088 26.71319997 -7.48803711 30.40405273 C-7.48871007 32.95613616 -7.48968003 35.50821953 -7.49093628 38.06030273 C-7.49241361 43.41708036 -7.49035217 48.77384078 -7.4855957 54.13061523 C-7.48015311 60.33188989 -7.48191579 66.53313166 -7.48742211 72.73440552 C-7.49249898 78.68939489 -7.49197168 84.64437401 -7.48904037 90.59936523 C-7.48837084 93.13842778 -7.48920043 95.67749116 -7.49151993 98.21655273 C-7.49404491 101.75824237 -7.49020803 105.2998679 -7.48461914 108.84155273 C-7.48664337 109.90237061 -7.4886676 110.96318848 -7.49075317 112.05615234 C-7.48793335 113.01529541 -7.48511353 113.97443848 -7.48220825 114.96264648 C-7.48183123 115.80110107 -7.4814542 116.63955566 -7.48106575 117.50341797 C-7.56413523 119.41475767 -7.56413523 119.41475767 -6.35522461 120.40405273 C-3.70780579 120.49916676 -1.08667004 120.52959601 1.56103516 120.51757812 C2.82501963 120.51775893 2.82501963 120.51775893 4.11453915 120.51794338 C6.85511306 120.51719416 9.59561982 120.5095655 12.33618164 120.50170898 C14.02298958 120.5002396 15.70979796 120.49921887 17.39660645 120.49865723 C23.66683636 120.49340399 29.93705653 120.47944292 36.20727539 120.46655273 C50.21165039 120.44592773 64.21602539 120.42530273 78.64477539 120.40405273 C78.64477539 82.12405273 78.64477539 43.84405273 78.64477539 4.40405273 C64.64040039 4.38342773 50.63602539 4.36280273 36.20727539 4.34155273 C31.77878174 4.33244873 27.35028809 4.32334473 22.78759766 4.31396484 C18.8318409 4.31062124 18.8318409 4.31062124 14.87608337 4.30860901 C13.10862476 4.30706936 11.34116723 4.30354402 9.57371521 4.29847717 C6.90280318 4.29120044 4.23195555 4.29014529 1.56103516 4.29052734 C0.37196611 4.28513018 0.37196611 4.28513018 -0.84112453 4.27962399 C-4.3924991 3.95582933 -4.3924991 3.95582933 -7.35522461 5.40405273 Z " fill="#FDF2F3" transform="translate(509.355224609375,311.595947265625)"/>
<path d="M0 0 C0.83272934 0.00222061 1.66545868 0.00444122 2.52342224 0.00672913 C3.46432205 0.00680466 4.40522186 0.00688019 5.37463379 0.00695801 C6.39754013 0.01211929 7.42044647 0.01728058 8.47434998 0.02259827 C9.51614914 0.02401321 10.5579483 0.02542816 11.63131714 0.02688599 C14.97355467 0.03250372 18.31572629 0.04505922 21.65794373 0.05775452 C23.91770839 0.06276723 26.17747409 0.06733053 28.4372406 0.07142639 C33.98999763 0.08247891 39.54271597 0.09923428 45.09544373 0.12025452 C45.45668226 7.34502516 45.45668226 7.34502516 43.94187927 10.59584045 C41.4020421 12.69272573 39.8201373 12.58003639 36.55247498 12.51087952 C35.5854364 12.50088928 34.61839783 12.49089905 33.62205505 12.48060608 C32.39639832 12.44419006 31.17074158 12.40777405 29.90794373 12.37025452 C26.00981873 12.28775452 22.11169373 12.20525452 18.09544373 12.12025452 C18.09544373 26.64025452 18.09544373 41.16025452 18.09544373 56.12025452 C11.16544373 56.12025452 4.23544373 56.12025452 -2.90455627 56.12025452 C-2.92919584 48.30572238 -2.94738732 40.49121264 -2.95948792 32.676651 C-2.9645301 30.01583971 -2.97136363 27.3550312 -2.97999573 24.69422913 C-2.99206636 20.87919936 -2.99778557 17.06420608 -3.00221252 13.24916077 C-3.00737381 12.05126419 -3.0125351 10.85336761 -3.01785278 9.61917114 C-3.01792831 8.51810532 -3.01800385 7.41703949 -3.01808167 6.28260803 C-3.02030228 5.30775955 -3.02252289 4.33291107 -3.02481079 3.32852173 C-2.87340003 0.54812374 -2.78031848 0.17555053 0 0 Z " fill="#FBE06C" transform="translate(351.90455627441406,379.87974548339844)"/>
<path d="M0 0 C23.43 0 46.86 0 71 0 C71 6.6 71 13.2 71 20 C70 21 70 21 67.22227478 21.12025452 C65.98095291 21.11803391 64.73963104 21.11581329 63.46069336 21.11352539 C62.77779739 21.11367142 62.09490143 21.11381744 61.39131165 21.1139679 C59.12412386 21.11326876 56.85701726 21.1054764 54.58984375 21.09765625 C53.02185613 21.09579207 51.45386793 21.09436817 49.88587952 21.09336853 C45.75123497 21.08954334 41.61662534 21.07971306 37.48199463 21.06866455 C33.26599602 21.05845044 29.04999178 21.05387091 24.83398438 21.04882812 C16.55597174 21.03809078 8.27799423 21.02049399 0 21 C0 14.07 0 7.14 0 0 Z " fill="#F9656B" transform="translate(510,339)"/>
<path d="M0 0 C6.6 0 13.2 0 20 0 C22.97845249 18.65511654 25.62621399 37.14166473 27 56 C20.07 56 13.14 56 6 56 C5.73445313 53.79183594 5.46890625 51.58367187 5.1953125 49.30859375 C4.93072691 47.11398637 4.66581726 44.91941833 4.40087891 42.72485352 C4.22020358 41.22684722 4.03985272 39.72880175 3.85986328 38.23071289 C3.59758433 36.04822966 3.33416888 33.86588681 3.0703125 31.68359375 C2.98307922 30.9590097 2.89584595 30.23442566 2.80596924 29.48788452 C2.37411212 25.93534678 1.92165888 22.38776569 1.42089844 18.84423828 C1.23817383 17.54599121 1.05544922 16.24774414 0.8671875 14.91015625 C0.7007373 13.76812744 0.53428711 12.62609863 0.36279297 11.44946289 C-0.03659996 7.65200487 0 3.81840309 0 0 Z " fill="#FBE06C" transform="translate(457,380)"/>
<path d="M0 0 C6.6 0 13.2 0 20 0 C20 5.41644291 19.85445666 10.17241018 19.1953125 15.47265625 C19.11127167 16.15823105 19.02723083 16.84380585 18.94064331 17.55015564 C18.6732752 19.72152421 18.39919595 21.89198431 18.125 24.0625 C17.94879158 25.48887959 17.77300764 26.91531168 17.59765625 28.34179688 C16.45773791 37.56927342 15.24051438 46.7855486 14 56 C7.07 56 0.14 56 -7 56 C-4.91888041 37.29105181 -2.79970817 18.61805936 0 0 Z " fill="#FBE16C" transform="translate(435,380)"/>
<path d="M0 0 C26.07 0 52.14 0 79 0 C79 9.24 79 18.48 79 28 C77.31767661 29.68232339 75.24576976 29.12575392 73.00016785 29.13552856 C72.2853273 29.13350433 71.57048676 29.1314801 70.83398438 29.12939453 C70.08441971 29.13114685 69.33485504 29.13289917 68.56257629 29.13470459 C66.07294431 29.1391232 63.58338277 29.1361851 61.09375 29.1328125 C59.37121568 29.13348554 57.64868145 29.13445556 55.92614746 29.13571167 C52.31127012 29.13718865 48.69641745 29.13503407 45.08154297 29.13037109 C40.43733507 29.1246738 35.79318496 29.1279528 31.14897919 29.13394356 C27.59063274 29.13754916 24.0323001 29.13641059 20.47395325 29.13381577 C18.76105238 29.13314649 17.04815028 29.13397493 15.33525085 29.13629532 C12.94547178 29.13882183 10.55578759 29.1349813 8.16601562 29.12939453 C7.45117508 29.13141876 6.73633453 29.13344299 5.99983215 29.13552856 C1.11426269 29.11426269 1.11426269 29.11426269 0 28 C0 18.76 0 9.52 0 0 Z M4 4 C4 10.93 4 17.86 4 25 C13.10959489 25.0225528 22.21917137 25.04091611 31.3287878 25.05181217 C35.55831371 25.05704056 39.7878196 25.0641374 44.01733398 25.07543945 C48.09568543 25.08626991 52.17401757 25.09227717 56.25238228 25.09487724 C57.81177639 25.09673121 59.3711694 25.10035127 60.93055534 25.10573006 C63.10729162 25.11294262 65.28394714 25.11399085 67.46069336 25.11352539 C68.70201523 25.115746 69.9433371 25.11796661 71.22227478 25.12025452 C73.907817 25.31747011 73.907817 25.31747011 75 24 C75 17.4 75 10.8 75 4 C51.57 4 28.14 4 4 4 Z " fill="#FCF4F4" transform="translate(506,335)"/>
<path d="M0 0 C1.26714844 -0.01417969 2.53429687 -0.02835937 3.83984375 -0.04296875 C7.0625 0.1875 7.0625 0.1875 9.0625 2.1875 C9.24987649 4.82866113 9.31819866 7.3630398 9.29296875 10.00390625 C9.29228142 11.16139626 9.29228142 11.16139626 9.2915802 12.3422699 C9.28855787 13.97388242 9.28067213 15.60549205 9.26831055 17.23706055 C9.25004787 19.74343 9.24780088 22.24943033 9.24804688 24.75585938 C9.24313198 26.33854488 9.23730379 27.92122787 9.23046875 29.50390625 C9.22935593 30.25805313 9.2282431 31.01220001 9.22709656 31.78919983 C9.17855119 37.07144881 9.17855119 37.07144881 8.0625 38.1875 C5.55113896 38.28725032 3.07346585 38.32632183 0.5625 38.3125 C-0.14003906 38.31636719 -0.84257813 38.32023437 -1.56640625 38.32421875 C-6.81088622 38.31411378 -6.81088622 38.31411378 -7.9375 37.1875 C-8.03845564 34.53293807 -8.07720998 31.90494824 -8.0703125 29.25 C-8.07126923 28.454729 -8.07222595 27.65945801 -8.07321167 26.84008789 C-8.07389343 25.1554354 -8.07203943 23.47078029 -8.06787109 21.78613281 C-8.06252275 19.19850803 -8.06781619 16.61105684 -8.07421875 14.0234375 C-8.07355797 12.39062461 -8.0722768 10.75781184 -8.0703125 9.125 C-8.07233673 8.34584229 -8.07436096 7.56668457 -8.07644653 6.76391602 C-8.04468036 -0.46618641 -7.047103 0.0357721 0 0 Z " fill="#FCEAEB" transform="translate(575.9375,387.8125)"/>
<path d="M0 0 C3.3 0 6.6 0 10 0 C10.98711722 3.83133036 11.96323949 7.66538199 12.9375 11.5 C13.35418945 13.11648438 13.35418945 13.11648438 13.77929688 14.765625 C15.2341077 20.51475694 16.43382724 26.09460313 17 32 C14.36 32 11.72 32 9 32 C8.67 29.03 8.34 26.06 8 23 C5.36 23 2.72 23 0 23 C-0.99 25.97 -1.98 28.94 -3 32 C-5.97 32 -8.94 32 -12 32 C-9.99229289 25.83566379 -7.81405563 19.78082935 -5.4375 13.75 C-5.13392578 12.97398437 -4.83035156 12.19796875 -4.51757812 11.3984375 C-3.02712541 7.59274997 -1.5244692 3.79221193 0 0 Z " fill="#FBDE79" transform="translate(419,578)"/>
<path d="M0 0 C3.114375 -0.020625 6.22875 -0.04125 9.4375 -0.0625 C10.91174438 -0.07615601 10.91174438 -0.07615601 12.41577148 -0.09008789 C13.18477783 -0.09258545 13.95378418 -0.09508301 14.74609375 -0.09765625 C15.93223267 -0.10551147 15.93223267 -0.10551147 17.14233398 -0.11352539 C19 0 19 0 20 1 C20.25098924 4.47208807 20.18522096 7.9574062 20.1875 11.4375 C20.19974609 12.41783203 20.21199219 13.39816406 20.22460938 14.40820312 C20.22750977 15.81295898 20.22750977 15.81295898 20.23046875 17.24609375 C20.23457764 18.10904053 20.23868652 18.9719873 20.24291992 19.86108398 C20 22 20 22 18 24 C16.12060547 24.22705078 16.12060547 24.22705078 13.8671875 24.1953125 C12.77833252 24.18781982 12.77833252 24.18781982 11.66748047 24.18017578 C10.28520264 24.15286377 10.28520264 24.15286377 8.875 24.125 C5.94625 24.08375 3.0175 24.0425 0 24 C0 16.08 0 8.16 0 0 Z " fill="#FBE37B" transform="translate(362,546)"/>
<path d="M0 0 C3.279375 -0.020625 6.55875 -0.04125 9.9375 -0.0625 C10.97253662 -0.071604 12.00757324 -0.08070801 13.07397461 -0.09008789 C14.28839233 -0.09383423 14.28839233 -0.09383423 15.52734375 -0.09765625 C16.77632446 -0.10551147 16.77632446 -0.10551147 18.05053711 -0.11352539 C20 0 20 0 21 1 C21.08700342 2.63472882 21.10701063 4.27314055 21.09765625 5.91015625 C21.09443359 6.89951172 21.09121094 7.88886719 21.08789062 8.90820312 C21.07951172 9.94912109 21.07113281 10.99003906 21.0625 12.0625 C21.05798828 13.10728516 21.05347656 14.15207031 21.04882812 15.22851562 C21.03699927 17.81903454 21.01906319 20.40952422 21 23 C14.4 23 7.8 23 1 23 C0.67 15.41 0.34 7.82 0 0 Z " fill="#FBE57C" transform="translate(361,519)"/>
<path d="M0 0 C2.64 0 5.28 0 8 0 C9.32 6.6 10.64 13.2 12 20 C12.598125 17.999375 13.19625 15.99875 13.8125 13.9375 C15.28679611 9.13160949 16.88149347 4.55478904 19 0 C21.64 0 24.28 0 27 0 C24.67131576 7.04482078 22.25669182 14.05699541 19.8125 21.0625 C19.44447266 22.11888672 19.07644531 23.17527344 18.69726562 24.26367188 C17.7987128 26.84263518 16.89961347 29.42140653 16 32 C13.03 32 10.06 32 7 32 C5.9970154 28.08714061 5.00029303 24.17274436 4.00927734 20.25683594 C3.67146625 18.92567238 3.33196479 17.59493658 2.99072266 16.26464844 C2.49975601 14.3494491 2.01542258 12.43255319 1.53125 10.515625 C1.23798828 9.36352539 0.94472656 8.21142578 0.64257812 7.02441406 C0 4 0 4 0 0 Z " fill="#FBE27A" transform="translate(385,578)"/>
<path d="M0 0 C5.94 0 11.88 0 18 0 C18 2.31 18 4.62 18 7 C14.37 7 10.74 7 7 7 C7 8.65 7 10.3 7 12 C9.97 12 12.94 12 16 12 C16 14.31 16 16.62 16 19 C13.03 19.33 10.06 19.66 7 20 C6.67 21.32 6.34 22.64 6 24 C9.63 24 13.26 24 17 24 C17 26.31 17 28.62 17 31 C10.73 31 4.46 31 -2 31 C-1.34 20.77 -0.68 10.54 0 0 Z " fill="#FCE77B" transform="translate(349,578)"/>
<path d="M0 0 C2 1 2 1 4 5 C15.22 5.33 26.44 5.66 38 6 C37.34 6.99 36.68 7.98 36 9 C33.52508886 9.33814748 31.28648312 9.48872339 28.8046875 9.51171875 C28.09724396 9.52966995 27.38980042 9.54762115 26.66091919 9.56611633 C24.39900697 9.62034442 22.13730716 9.65415316 19.875 9.6875 C18.34241827 9.72066226 16.80986462 9.7551509 15.27734375 9.79101562 C11.51838221 9.87607727 7.759485 9.94282753 4 10 C3.97534119 13.96930989 3.95715977 17.93859034 3.94506836 21.90795898 C3.94002943 23.25920386 3.93319823 24.61044326 3.92456055 25.96166992 C3.91247581 27.90020434 3.90730172 29.838778 3.90234375 31.77734375 C3.89710693 32.94515381 3.89187012 34.11296387 3.88647461 35.31616211 C3.69338505 37.91891551 3.69338505 37.91891551 5 39 C7.18292774 39.23481693 9.37203174 39.41363323 11.5625 39.5625 C12.76003906 39.64628906 13.95757813 39.73007812 15.19140625 39.81640625 C16.58166016 39.90728516 16.58166016 39.90728516 18 40 C17.67 40.66 17.34 41.32 17 42 C12.68026501 42.60809019 8.35840246 42.74611248 4 43 C4 48.28 4 53.56 4 59 C8.29 59.33 12.58 59.66 17 60 C16.67 60.66 16.34 61.32 16 62 C13.3125 62.59765625 13.3125 62.59765625 10 63.0625 C6.18188068 63.30764104 6.18188068 63.30764104 3 65 C2.71599669 68.10149646 2.5512529 71.20292646 2.37890625 74.3125 C2.25386719 75.199375 2.12882812 76.08625 2 77 C1.01 77.495 1.01 77.495 0 78 C0 52.26 0 26.52 0 0 Z " fill="#FD5C63" transform="translate(503,325)"/>
<path d="M0 0 C1.051875 -0.00386719 1.051875 -0.00386719 2.125 -0.0078125 C4 0.125 4 0.125 6 1.125 C6 3.765 6 6.405 6 9.125 C3.69 9.125 1.38 9.125 -1 9.125 C0.37432923 13.13346025 2.2889438 15.88922324 5 19.125 C6.41000664 21.94501327 6.24548451 23.99507255 6 27.125 C3.73529412 31.75735294 3.73529412 31.75735294 1 33.125 C-0.8521563 33.22084979 -2.70787153 33.25483606 -4.5625 33.25 C-5.55378906 33.25257813 -6.54507812 33.25515625 -7.56640625 33.2578125 C-10 33.125 -10 33.125 -11 32.125 C-11.14115161 29.45441149 -11.04247107 26.80067762 -11 24.125 C-8.03 24.455 -5.06 24.785 -2 25.125 C-3.33055253 22.81404034 -4.64673199 20.56763641 -6.3125 18.48046875 C-8.79695667 15.35372357 -9.9355313 13.54046493 -10.5625 9.5 C-9.90962152 5.58272915 -8.78343501 3.90843501 -6 1.125 C-3.75487738 0.00243869 -2.48543351 -0.00913762 0 0 Z " fill="#FBDF7A" transform="translate(340,576.875)"/>
<path d="M0 0 C0.71353638 0.00202423 1.42707275 0.00404846 2.16223145 0.00613403 C2.89091431 0.00517731 3.61959717 0.00422058 4.37036133 0.00323486 C5.91377855 0.00255318 7.45719861 0.00440666 9.00061035 0.00857544 C11.37095544 0.01392391 13.74111104 0.00863011 16.1114502 0.00222778 C17.60754437 0.00288857 19.10363842 0.00416973 20.59973145 0.00613403 C21.31326782 0.0041098 22.0268042 0.00208557 22.76196289 0 C27.76602953 0.02399462 27.76602953 0.02399462 28.88098145 1.13894653 C28.97888714 2.63632778 29.01073009 4.13837545 29.00598145 5.63894653 C29.00984863 6.86097778 29.00984863 6.86097778 29.01379395 8.10769653 C28.88098145 10.13894653 28.88098145 10.13894653 27.88098145 11.13894653 C25.44437699 11.23977417 23.03673444 11.27867257 20.59973145 11.27175903 C19.87104858 11.27271576 19.14236572 11.27367249 18.39160156 11.2746582 C16.84818435 11.27533989 15.30476428 11.27348641 13.76135254 11.26931763 C11.39100745 11.26396916 9.02085185 11.26926295 6.6505127 11.27566528 C5.15441852 11.2750045 3.65832447 11.27372333 2.16223145 11.27175903 C1.09192688 11.27479538 1.09192688 11.27479538 0 11.27789307 C-5.00406664 11.25389845 -5.00406664 11.25389845 -6.11901855 10.13894653 C-6.21692425 8.64156529 -6.2487672 7.13951761 -6.24401855 5.63894653 C-6.24659668 4.82425903 -6.2491748 4.00957153 -6.25183105 3.17019653 C-5.98577844 -0.89884339 -3.4926775 0.01674747 0 0 Z " fill="#FCDBDD" transform="translate(512.1190185546875,319.8610534667969)"/>
<path d="M0 0 C2.97 0 5.94 0 9 0 C9.99 3.3 10.98 6.6 12 10 C12.309375 8.535625 12.61875 7.07125 12.9375 5.5625 C13.875 1.125 13.875 1.125 15 0 C16.51928038 -0.07179964 18.04167482 -0.08392007 19.5625 -0.0625 C20.38878906 -0.05347656 21.21507812 -0.04445313 22.06640625 -0.03515625 C22.70449219 -0.02355469 23.34257812 -0.01195312 24 0 C23.37851697 2.70918332 22.75293439 5.41731127 22.125 8.125 C21.95097656 8.88554688 21.77695312 9.64609375 21.59765625 10.4296875 C20.60201572 14.70725424 19.47028611 18.85405809 18 23 C14.04 23 10.08 23 6 23 C4.50644499 17.88020106 3.15391997 12.73975752 1.875 7.5625 C1.60236328 6.46518555 1.60236328 6.46518555 1.32421875 5.34570312 C0.88172226 3.56407251 0.44070512 1.78207458 0 0 Z " fill="#FBE37B" transform="translate(383,519)"/>
<path d="M0 0 C2.64 0 5.28 0 8 0 C8 7.92 8 15.84 8 24 C10.97 24 13.94 24 17 24 C17 26.31 17 28.62 17 31 C11.06 31 5.12 31 -1 31 C-1.12068634 20.62097439 -0.65082223 10.35504648 0 0 Z " fill="#FCE37B" transform="translate(369,578)"/>
<path d="M0 0 C4.62 0 9.24 0 14 0 C14.10763614 8.0727106 13.6920239 15.95522214 13 24 C9.04 24 5.08 24 1 24 C0.67 16.08 0.34 8.16 0 0 Z " fill="#FB9B9D" transform="translate(360,445)"/>
<path d="M0 0 C0.70253906 0.00386719 1.40507813 0.00773437 2.12890625 0.01171875 C2.83144531 0.00785156 3.53398438 0.00398438 4.2578125 0 C9.50229247 0.01010497 9.50229247 0.01010497 10.62890625 1.13671875 C10.72865657 3.64807979 10.76772808 6.1257529 10.75390625 8.63671875 C10.75970703 9.69052734 10.75970703 9.69052734 10.765625 10.765625 C10.75552003 16.01010497 10.75552003 16.01010497 9.62890625 17.13671875 C7.11754521 17.23646907 4.6398721 17.27554058 2.12890625 17.26171875 C1.42636719 17.26558594 0.72382812 17.26945312 0 17.2734375 C-5.24447997 17.26333253 -5.24447997 17.26333253 -6.37109375 16.13671875 C-6.47084407 13.62535771 -6.50991558 11.1476846 -6.49609375 8.63671875 C-6.49996094 7.93417969 -6.50382813 7.23164063 -6.5078125 6.5078125 C-6.49578187 0.26391348 -6.24389902 0.01203063 0 0 Z " fill="#FCE7E8" transform="translate(553.37109375,408.86328125)"/>
<path d="M0 0 C0.70253906 0.00386719 1.40507813 0.00773437 2.12890625 0.01171875 C2.83144531 0.00785156 3.53398438 0.00398438 4.2578125 0 C9.50229247 0.01010497 9.50229247 0.01010497 10.62890625 1.13671875 C10.72865657 3.64807979 10.76772808 6.1257529 10.75390625 8.63671875 C10.75970703 9.69052734 10.75970703 9.69052734 10.765625 10.765625 C10.75552003 16.01010497 10.75552003 16.01010497 9.62890625 17.13671875 C7.11754521 17.23646907 4.6398721 17.27554058 2.12890625 17.26171875 C1.42636719 17.26558594 0.72382812 17.26945312 0 17.2734375 C-5.24447997 17.26333253 -5.24447997 17.26333253 -6.37109375 16.13671875 C-6.47084407 13.62535771 -6.50991558 11.1476846 -6.49609375 8.63671875 C-6.49996094 7.93417969 -6.50382812 7.23164063 -6.5078125 6.5078125 C-6.49578187 0.26391348 -6.24389902 0.01203063 0 0 Z " fill="#FDF1F1" transform="translate(512.37109375,408.86328125)"/>
<path d="M0 0 C0.70253906 0.00386719 1.40507813 0.00773437 2.12890625 0.01171875 C2.83144531 0.00785156 3.53398438 0.00398438 4.2578125 0 C9.50229247 0.01010497 9.50229247 0.01010497 10.62890625 1.13671875 C10.72865657 3.64807979 10.76772808 6.1257529 10.75390625 8.63671875 C10.75970703 9.69052734 10.75970703 9.69052734 10.765625 10.765625 C10.75552003 16.01010497 10.75552003 16.01010497 9.62890625 17.13671875 C7.11754521 17.23646907 4.6398721 17.27554058 2.12890625 17.26171875 C1.42636719 17.26558594 0.72382812 17.26945312 0 17.2734375 C-5.24447997 17.26333253 -5.24447997 17.26333253 -6.37109375 16.13671875 C-6.47084407 13.62535771 -6.50991558 11.1476846 -6.49609375 8.63671875 C-6.49996094 7.93417969 -6.50382813 7.23164063 -6.5078125 6.5078125 C-6.49578187 0.26391348 -6.24389902 0.01203063 0 0 Z " fill="#FDF0F0" transform="translate(553.37109375,387.86328125)"/>
<path d="M0 0 C0.70253906 0.00386719 1.40507813 0.00773437 2.12890625 0.01171875 C2.83144531 0.00785156 3.53398438 0.00398438 4.2578125 0 C9.50229247 0.01010497 9.50229247 0.01010497 10.62890625 1.13671875 C10.72865657 3.64807979 10.76772808 6.1257529 10.75390625 8.63671875 C10.75970703 9.69052734 10.75970703 9.69052734 10.765625 10.765625 C10.75552003 16.01010497 10.75552003 16.01010497 9.62890625 17.13671875 C7.11754521 17.23646907 4.6398721 17.27554058 2.12890625 17.26171875 C1.42636719 17.26558594 0.72382812 17.26945312 0 17.2734375 C-5.24447997 17.26333253 -5.24447997 17.26333253 -6.37109375 16.13671875 C-6.47084407 13.62535771 -6.50991558 11.1476846 -6.49609375 8.63671875 C-6.49996094 7.93417969 -6.50382812 7.23164063 -6.5078125 6.5078125 C-6.49578187 0.26391348 -6.24389902 0.01203063 0 0 Z " fill="#FDEFEF" transform="translate(512.37109375,387.86328125)"/>
<path d="M0 0 C5.28 0 10.56 0 16 0 C16.020625 2.619375 16.04125 5.23875 16.0625 7.9375 C16.071604 8.7637085 16.08070801 9.58991699 16.09008789 10.44116211 C16.09723945 12.29433759 16.0502852 14.14749308 16 16 C15 17 15 17 11.62109375 17.09765625 C10.22652508 17.09191424 8.83198403 17.07890228 7.4375 17.0625 C4.983125 17.041875 2.52875 17.02125 0 17 C0 11.39 0 5.78 0 0 Z " fill="#FDF1F1" transform="translate(527,409)"/>
<path d="M0 0 C5.61 0 11.22 0 17 0 C17.020625 2.454375 17.04125 4.90875 17.0625 7.4375 C17.071604 8.21150146 17.08070801 8.98550293 17.09008789 9.78295898 C17.09724913 11.52221717 17.05024702 13.26145304 17 15 C16 16 16 16 12.40234375 16.09765625 C10.91402745 16.09191272 9.42573704 16.07889891 7.9375 16.0625 C5.318125 16.041875 2.69875 16.02125 0 16 C0 10.72 0 5.44 0 0 Z " fill="#FDF2F2" transform="translate(568,368)"/>
<path d="M0 0 C1.4883163 0.00574353 2.97660671 0.01875734 4.46484375 0.03515625 C7.08421875 0.05578125 9.70359375 0.07640625 12.40234375 0.09765625 C12.40234375 5.37765625 12.40234375 10.65765625 12.40234375 16.09765625 C6.79234375 16.09765625 1.18234375 16.09765625 -4.59765625 16.09765625 C-4.61828125 13.64328125 -4.63890625 11.18890625 -4.66015625 8.66015625 C-4.66926025 7.88615479 -4.67836426 7.11215332 -4.68774414 6.31469727 C-4.69490538 4.57543908 -4.64790327 2.83620321 -4.59765625 1.09765625 C-3.59765625 0.09765625 -3.59765625 0.09765625 0 0 Z " fill="#FDF0F1" transform="translate(551.59765625,367.90234375)"/>
<path d="M0 0 C1.27875 0.00257813 2.5575 0.00515625 3.875 0.0078125 C5.15375 0.00523437 6.4325 0.00265625 7.75 0 C10.875 0.1328125 10.875 0.1328125 11.875 1.1328125 C11.94825436 3.831503 11.96722351 6.49783806 11.9375 9.1953125 C11.916875 11.8146875 11.89625 14.4340625 11.875 17.1328125 C6.595 17.1328125 1.315 17.1328125 -4.125 17.1328125 C-4.145625 14.5134375 -4.16625 11.8940625 -4.1875 9.1953125 C-4.196604 8.369104 -4.20570801 7.54289551 -4.21508789 6.69165039 C-4.22223945 4.83847491 -4.1752852 2.98531942 -4.125 1.1328125 C-3.125 0.1328125 -3.125 0.1328125 0 0 Z " fill="#FDF3F3" transform="translate(531.125,387.8671875)"/>
<path d="M0 0 C3.9290625 -0.0309375 3.9290625 -0.0309375 7.9375 -0.0625 C8.7637085 -0.071604 9.58991699 -0.08070801 10.44116211 -0.09008789 C12.29433759 -0.09723945 14.14749308 -0.0502852 16 0 C17 1 17 1 17.1328125 4.125 C17.13023437 5.40375 17.12765625 6.6825 17.125 8 C17.12886719 9.918125 17.12886719 9.918125 17.1328125 11.875 C17 15 17 15 16 16 C13.3013095 16.07325436 10.63497444 16.09222351 7.9375 16.0625 C5.318125 16.041875 2.69875 16.02125 0 16 C0 10.72 0 5.44 0 0 Z " fill="#FDF0F0" transform="translate(506,368)"/>
<path d="M0 0 C7.26 0 14.52 0 22 0 C22 3.96 22 7.92 22 12 C14.41 12 6.82 12 -1 12 C-0.67 8.04 -0.34 4.08 0 0 Z " fill="#FBDF6B" transform="translate(293,359)"/>
<path d="M0 0 C5.28 0 10.56 0 16 0 C16 5.28 16 10.56 16 16 C10.72 16 5.44 16 0 16 C0 10.72 0 5.44 0 0 Z " fill="#FDF6F6" transform="translate(527,368)"/>
<path d="M0 0 C2.64 0 5.28 0 8 0 C8 9.24 8 18.48 8 28 C5.36 28 2.72 28 0 28 C0 18.76 0 9.52 0 0 Z " fill="#FB6369" transform="translate(572,393)"/>
<path d="M0 0 C3.3 0 6.6 0 10 0 C10 7.92 10 15.84 10 24 C7.03 24 4.06 24 1 24 C0.67 16.08 0.34 8.16 0 0 Z " fill="#FCE07B" transform="translate(390,546)"/>
<path d="M0 0 C0.33 0 0.66 0 1 0 C1.33 3.3 1.66 6.6 2 10 C2.33 6.7 2.66 3.4 3 0 C3.33 0 3.66 0 4 0 C4 4.95 4 9.9 4 15 C8.95 15 13.9 15 19 15 C19 15.33 19 15.66 19 16 C15.37 16 11.74 16 8 16 C8 16.66 8 17.32 8 18 C9.98 18 11.96 18 14 18 C14 18.33 14 18.66 14 19 C11.03 19.33 8.06 19.66 5 20 C4.67 31.55 4.34 43.1 4 55 C3.67 55 3.34 55 3 55 C2.67 45.43 2.34 35.86 2 26 C1.67 28.97 1.34 31.94 1 35 C0.67 35 0.34 35 0 35 C-0.33 30.05 -0.66 25.1 -1 20 C-4.96 19.67 -8.92 19.34 -13 19 C-13 18.67 -13 18.34 -13 18 C-9.7 17.67 -6.4 17.34 -3 17 C-7.29 16.67 -11.58 16.34 -16 16 C-16 15.67 -16 15.34 -16 15 C-10.72 15 -5.44 15 0 15 C0 10.05 0 5.1 0 0 Z " fill="#FA6C75" transform="translate(564,369)"/>
<path d="M0 0 C1.97909398 -0.02686553 3.95828971 -0.04633375 5.9375 -0.0625 C7.03964844 -0.07410156 8.14179688 -0.08570313 9.27734375 -0.09765625 C12 0 12 0 13 1 C13.14257189 4.33618231 13.04228157 7.65975606 13 11 C8.71 11 4.42 11 0 11 C0 7.37 0 3.74 0 0 Z " fill="#FDF5F5" transform="translate(459,445)"/>
<path d="M0 0 C3.96 0 7.92 0 12 0 C12.33 3.63 12.66 7.26 13 11 C11.02 11 9.04 11 7 11 C7 9.68 7 8.36 7 7 C6.34 7 5.68 7 5 7 C5 8.32 5 9.64 5 11 C3.02 11 1.04 11 -1 11 C-0.67 7.37 -0.34 3.74 0 0 Z " fill="#FDF3F3" transform="translate(303,458)"/>
<path d="M0 0 C4.29 0 8.58 0 13 0 C13 0.66 13 1.32 13 2 C12.34 2 11.68 2 11 2 C11.33 2.7425 11.66 3.485 12 4.25 C13 7 13 7 13 11 C8.66666667 11 4.33333333 11 0 11 C0 7.37 0 3.74 0 0 Z " fill="#FDF9F9" transform="translate(459,458)"/>
<path d="M0 0 C3.96 0 7.92 0 12 0 C12.9681648 3.8726592 13.07622858 7.03611362 13 11 C11.02 11 9.04 11 7 11 C6.67 9.02 6.34 7.04 6 5 C5.67 6.98 5.34 8.96 5 11 C3.02 11 1.04 11 -1 11 C-0.67 7.37 -0.34 3.74 0 0 Z " fill="#FDF7F7" transform="translate(399,458)"/>
<path d="M0 0 C1.65 0 3.3 0 5 0 C5 1.65 5 3.3 5 5 C5.66 5 6.32 5 7 5 C7 3.35 7 1.7 7 0 C8.65 0 10.3 0 12 0 C12 3.63 12 7.26 12 11 C8.04 11 4.08 11 0 11 C0 7.37 0 3.74 0 0 Z " fill="#FEFDFD" transform="translate(439,458)"/>
<path d="M0 0 C1.65 0 3.3 0 5 0 C5 1.65 5 3.3 5 5 C5.66 5 6.32 5 7 5 C7 3.35 7 1.7 7 0 C8.65 0 10.3 0 12 0 C12 3.63 12 7.26 12 11 C8.04 11 4.08 11 0 11 C0 7.37 0 3.74 0 0 Z " fill="#FEFCFB" transform="translate(361,458)"/>
<path d="M0 0 C3.96 0 7.92 0 12 0 C12 3.63 12 7.26 12 11 C10.35 11 8.7 11 7 11 C7 9.35 7 7.7 7 6 C6.34 6 5.68 6 5 6 C5 7.65 5 9.3 5 11 C3.35 11 1.7 11 0 11 C0 7.37 0 3.74 0 0 Z " fill="#FEFCFC" transform="translate(439,445)"/>
<path d="M0 0 C0.33 0 0.66 0 1 0 C1.33 5.94 1.66 11.88 2 18 C7.94 18 13.88 18 20 18 C20 18.33 20 18.66 20 19 C7.13 19 -5.74 19 -19 19 C-19 18.67 -19 18.34 -19 18 C-12.73 18 -6.46 18 0 18 C0 15.69 0 13.38 0 11 C-3.63 11 -7.26 11 -11 11 C-10.67 9.35 -10.34 7.7 -10 6 C-7.03 6 -4.06 6 -1 6 C-0.67 4.02 -0.34 2.04 0 0 Z " fill="#FC8B6C" transform="translate(366,591)"/>
<path d="M0 0 C2.31 0 4.62 0 7 0 C7 5.28 7 10.56 7 16 C4.69 16 2.38 16 0 16 C0 10.72 0 5.44 0 0 Z " fill="#FB6965" transform="translate(370,343)"/>
<path d="M0 0 C1.65322266 0.01740234 1.65322266 0.01740234 3.33984375 0.03515625 C4.99693359 0.04869141 4.99693359 0.04869141 6.6875 0.0625 C7.54214844 0.07410156 8.39679688 0.08570313 9.27734375 0.09765625 C9.27734375 2.07765625 9.27734375 4.05765625 9.27734375 6.09765625 C6.96734375 6.09765625 4.65734375 6.09765625 2.27734375 6.09765625 C2.27734375 7.74765625 2.27734375 9.39765625 2.27734375 11.09765625 C0.29734375 11.09765625 -1.68265625 11.09765625 -3.72265625 11.09765625 C-3.74953776 9.45191059 -3.76899748 7.80604212 -3.78515625 6.16015625 C-3.79675781 5.24363281 -3.80835938 4.32710938 -3.8203125 3.3828125 C-3.67719549 0.03387446 -3.38091958 0.12126684 0 0 Z " fill="#FDF3F4" transform="translate(343.72265625,444.90234375)"/>
<path d="M0 0 C1.98 0 3.96 0 6 0 C6 1.65 6 3.3 6 5 C8.31 5 10.62 5 13 5 C12.67 6.98 12.34 8.96 12 11 C8.04 11 4.08 11 0 11 C0 7.37 0 3.74 0 0 Z " fill="#FDF7F7" transform="translate(282,458)"/>
<path d="M0 0 C1.98 0 3.96 0 6 0 C6 1.65 6 3.3 6 5 C8.31 5 10.62 5 13 5 C12.67 6.98 12.34 8.96 12 11 C10.18757948 11.02687279 8.37504767 11.04633715 6.5625 11.0625 C5.55316406 11.07410156 4.54382813 11.08570313 3.50390625 11.09765625 C1 11 1 11 0 10 C-0.07205511 8.31391034 -0.08386068 6.62499341 -0.0625 4.9375 C-0.05347656 4.01839844 -0.04445313 3.09929687 -0.03515625 2.15234375 C-0.02355469 1.44207031 -0.01195312 0.73179687 0 0 Z " fill="#FDF6F7" transform="translate(340,458)"/>
<path d="M0 0 C1.65322266 0.01740234 1.65322266 0.01740234 3.33984375 0.03515625 C4.99693359 0.04869141 4.99693359 0.04869141 6.6875 0.0625 C7.54214844 0.07410156 8.39679688 0.08570313 9.27734375 0.09765625 C8.94734375 2.07765625 8.61734375 4.05765625 8.27734375 6.09765625 C6.29734375 6.09765625 4.31734375 6.09765625 2.27734375 6.09765625 C2.27734375 7.74765625 2.27734375 9.39765625 2.27734375 11.09765625 C0.29734375 11.09765625 -1.68265625 11.09765625 -3.72265625 11.09765625 C-3.74953776 9.45191059 -3.76899748 7.80604212 -3.78515625 6.16015625 C-3.79675781 5.24363281 -3.80835938 4.32710938 -3.8203125 3.3828125 C-3.67719549 0.03387446 -3.38091958 0.12126684 0 0 Z " fill="#FDF7F7" transform="translate(285.72265625,444.90234375)"/>
<path d="M0 0 C3.96 0 7.92 0 12 0 C11.67 1.98 11.34 3.96 11 6 C10.34 6 9.68 6 9 6 C9 7.65 9 9.3 9 11 C7.02 11 5.04 11 3 11 C3 9.35 3 7.7 3 6 C2.01 6 1.02 6 0 6 C0 4.02 0 2.04 0 0 Z " fill="#FDF7F8" transform="translate(419,445)"/>
<path d="M0 0 C2.64 0 5.28 0 8 0 C8.33 3.63 8.66 7.26 9 11 C5.7 11 2.4 11 -1 11 C-0.67 7.37 -0.34 3.74 0 0 Z " fill="#FDF4F5" transform="translate(305,445)"/>
<path d="M0 0 C2.64 0 5.28 0 8 0 C9.17571451 3.67410785 9.07366746 7.16929183 9 11 C5.7 11 2.4 11 -1 11 C-0.67 7.37 -0.34 3.74 0 0 Z " fill="#FDF5F6" transform="translate(401,445)"/>
<path d="M0 0 C1.98 0 3.96 0 6 0 C6 1.65 6 3.3 6 5 C7.32 5 8.64 5 10 5 C10.042721 6.66611905 10.04063832 8.33382885 10 10 C9 11 9 11 6.93359375 11.09765625 C3.46679688 11.04882812 3.46679688 11.04882812 0 11 C0 7.37 0 3.74 0 0 Z " fill="#FDF4F5" transform="translate(381,458)"/>
<path d="M0 0 C1.98 0 3.96 0 6 0 C6 1.65 6 3.3 6 5 C6.99 5 7.98 5 9 5 C9 6.98 9 8.96 9 11 C6.03 11 3.06 11 0 11 C0 7.37 0 3.74 0 0 Z " fill="#FEF9FA" transform="translate(323,458)"/>
<path d="M0 0 C2.97 0 5.94 0 9 0 C9 2.97 9 5.94 9 9 C6.03 9 3.06 9 0 9 C0 6.03 0 3.06 0 0 Z " fill="#FB757A" transform="translate(510,413)"/>
<path d="M0 0 C2.97 0 5.94 0 9 0 C9 2.64 9 5.28 9 8 C6.03 8 3.06 8 0 8 C0 5.36 0 2.72 0 0 Z " fill="#FC7176" transform="translate(551,393)"/>
<path d="M0 0 C2.97 0 5.94 0 9 0 C9 2.64 9 5.28 9 8 C6.03 8 3.06 8 0 8 C0 5.36 0 2.72 0 0 Z " fill="#FC6D73" transform="translate(510,393)"/>
<path d="M0 0 C2.97 0 5.94 0 9 0 C9 2.64 9 5.28 9 8 C6.03 8 3.06 8 0 8 C0 5.36 0 2.72 0 0 Z " fill="#FB6A70" transform="translate(572,372)"/>
<path d="M0 0 C2.31 0 4.62 0 7 0 C7 3.63 7 7.26 7 11 C5.02 11 3.04 11 1 11 C0.67 7.37 0.34 3.74 0 0 Z " fill="#FDF6F7" transform="translate(322,445)"/>
<path d="M0 0 C1.98 0 3.96 0 6 0 C6 3.63 6 7.26 6 11 C4.02 11 2.04 11 0 11 C0 7.37 0 3.74 0 0 Z " fill="#FEFAF9" transform="translate(422,458)"/>
<path d="M0 0 C1.98 0 3.96 0 6 0 C6 3.63 6 7.26 6 11 C4.02 11 2.04 11 0 11 C0 7.37 0 3.74 0 0 Z " fill="#FDF5F5" transform="translate(381,445)"/>
<path d="M0 0 C1.98 0 3.96 0 6 0 C6 3.63 6 7.26 6 11 C4.02 11 2.04 11 0 11 C0 7.37 0 3.74 0 0 Z " fill="#FDEEEF" transform="translate(368,445)"/>
<path d="M0 0 C2.64 0 5.28 0 8 0 C8 2.64 8 5.28 8 8 C5.36 8 2.72 8 0 8 C0 5.36 0 2.72 0 0 Z " fill="#FC666C" transform="translate(531,413)"/>
<path d="M0 0 C2.64 0 5.28 0 8 0 C8 2.64 8 5.28 8 8 C5.36 8 2.72 8 0 8 C0 5.36 0 2.72 0 0 Z " fill="#FC666C" transform="translate(531,393)"/>
<path d="M0 0 C2.64 0 5.28 0 8 0 C8 2.64 8 5.28 8 8 C5.36 8 2.72 8 0 8 C0 5.36 0 2.72 0 0 Z " fill="#FC6368" transform="translate(552,372)"/>
<path d="M0 0 C2.64 0 5.28 0 8 0 C8 2.64 8 5.28 8 8 C5.36 8 2.72 8 0 8 C0 5.36 0 2.72 0 0 Z " fill="#FC6167" transform="translate(531,372)"/>
<path d="M0 0 C2.64 0 5.28 0 8 0 C8 2.64 8 5.28 8 8 C5.36 8 2.72 8 0 8 C0 5.36 0 2.72 0 0 Z " fill="#FC6166" transform="translate(510,372)"/>
<path d="M0 0 C1.98 0 3.96 0 6 0 C6 3.63 6 7.26 6 11 C4.35 11 2.7 11 1 11 C0.67 7.37 0.34 3.74 0 0 Z " fill="#FEFAFA" transform="translate(360,445)"/>
<path d="M0 0 C2.31 0 4.62 0 7 0 C7 2.31 7 4.62 7 7 C4.69 7 2.38 7 0 7 C0 4.69 0 2.38 0 0 Z " fill="#FD5B60" transform="translate(552,414)"/>
<path d="M0 0 C0.66 0 1.32 0 2 0 C2 1.65 2 3.3 2 5 C3.65 5 5.3 5 7 5 C7 5.66 7 6.32 7 7 C5.35 7 3.7 7 2 7 C2 8.65 2 10.3 2 12 C1.34 12 0.68 12 0 12 C0 10.35 0 8.7 0 7 C-1.65 7 -3.3 7 -5 7 C-5 6.34 -5 5.68 -5 5 C-3.35 5 -1.7 5 0 5 C0 3.35 0 1.7 0 0 Z " fill="#F9A4A6" transform="translate(444,451)"/>
<path d="M0 0 C4.93928888 -0.3367697 5.78492722 -0.16130459 10 3 C6.7 3 3.4 3 0 3 C0 2.01 0 1.02 0 0 Z " fill="#FE5569" transform="translate(356,598)"/>
<path d="M0 0 C0.99 0 1.98 0 3 0 C3 2.31 3 4.62 3 7 C2.01 6.67 1.02 6.34 0 6 C0 4.02 0 2.04 0 0 Z " fill="#FB7864" transform="translate(371,551)"/>
<path d="M0 0 C0.99 0 1.98 0 3 0 C3 1.98 3 3.96 3 6 C2.01 6 1.02 6 0 6 C0 4.02 0 2.04 0 0 Z " fill="#FC6F63" transform="translate(371,531)"/>
</svg>
